<svg id="visual" viewBox="0 0 900 600" width="900" height="600" xmlns="http://www.w3.org/2000/svg" xmlns:xlink="http://www.w3.org/1999/xlink" version="1.1"><path d="M746 600L782 600L782 545L827 545L827 491L845 491L845 436L800 436L800 382L827 382L827 327L764 327L764 273L845 273L845 218L836 218L836 164L791 164L791 109L755 109L755 55L818 55L818 0L900 0L900 55L900 55L900 109L900 109L900 164L900 164L900 218L900 218L900 273L900 273L900 327L900 327L900 382L900 382L900 436L900 436L900 491L900 491L900 545L900 545L900 600L900 600Z" fill="#00383e"></path><path d="M422 600L494 600L494 545L575 545L575 491L665 491L665 436L548 436L548 382L575 382L575 327L557 327L557 273L638 273L638 218L647 218L647 164L494 164L494 109L539 109L539 55L611 55L611 0L819 0L819 55L756 55L756 109L792 109L792 164L837 164L837 218L846 218L846 273L765 273L765 327L828 327L828 382L801 382L801 436L846 436L846 491L828 491L828 545L783 545L783 600L747 600Z" fill="#004968"></path><path d="M323 600L341 600L341 545L404 545L404 491L467 491L467 436L485 436L485 382L395 382L395 327L386 327L386 273L539 273L539 218L539 218L539 164L368 164L368 109L440 109L440 55L521 55L521 0L612 0L612 55L540 55L540 109L495 109L495 164L648 164L648 218L639 218L639 273L558 273L558 327L576 327L576 382L549 382L549 436L666 436L666 491L576 491L576 545L495 545L495 600L423 600Z" fill="#44528a"></path><path d="M161 600L125 600L125 545L107 545L107 491L188 491L188 436L170 436L170 382L98 382L98 327L197 327L197 273L224 273L224 218L251 218L251 164L170 164L170 109L215 109L215 55L98 55L98 0L522 0L522 55L441 55L441 109L369 109L369 164L540 164L540 218L540 218L540 273L387 273L387 327L396 327L396 382L486 382L486 436L468 436L468 491L405 491L405 545L342 545L342 600L324 600Z" fill="#905090"></path><path d="M0 600L0 600L0 545L0 545L0 491L0 491L0 436L0 436L0 382L0 382L0 327L0 327L0 273L0 273L0 218L0 218L0 164L0 164L0 109L0 109L0 55L0 55L0 0L99 0L99 55L216 55L216 109L171 109L171 164L252 164L252 218L225 218L225 273L198 273L198 327L99 327L99 382L171 382L171 436L189 436L189 491L108 491L108 545L126 545L126 600L162 600Z" fill="#cc5075"></path></svg>