<svg id="visual" viewBox="0 0 900 600" width="900" height="600" xmlns="http://www.w3.org/2000/svg" xmlns:xlink="http://www.w3.org/1999/xlink" version="1.1"><path d="M728 600L476 600L476 545L746 545L746 491L719 491L719 436L557 436L557 382L638 382L638 327L692 327L692 273L611 273L611 218L530 218L530 164L593 164L593 109L566 109L566 55L566 55L566 0L900 0L900 55L900 55L900 109L900 109L900 164L900 164L900 218L900 218L900 273L900 273L900 327L900 327L900 382L900 382L900 436L900 436L900 491L900 491L900 545L900 545L900 600L900 600Z" fill="#00383e"></path><path d="M548 600L377 600L377 545L530 545L530 491L584 491L584 436L395 436L395 382L440 382L440 327L467 327L467 273L476 273L476 218L359 218L359 164L395 164L395 109L449 109L449 55L368 55L368 0L567 0L567 55L567 55L567 109L594 109L594 164L531 164L531 218L612 218L612 273L693 273L693 327L639 327L639 382L558 382L558 436L720 436L720 491L747 491L747 545L477 545L477 600L729 600Z" fill="#326064"></path><path d="M494 600L251 600L251 545L395 545L395 491L431 491L431 436L305 436L305 382L350 382L350 327L377 327L377 273L404 273L404 218L278 218L278 164L242 164L242 109L350 109L350 55L305 55L305 0L369 0L369 55L450 55L450 109L396 109L396 164L360 164L360 218L477 218L477 273L468 273L468 327L441 327L441 382L396 382L396 436L585 436L585 491L531 491L531 545L378 545L378 600L549 600Z" fill="#5e8c8d"></path><path d="M125 600L116 600L116 545L125 545L125 491L152 491L152 436L152 436L152 382L170 382L170 327L161 327L161 273L179 273L179 218L98 218L98 164L53 164L53 109L80 109L80 55L170 55L170 0L306 0L306 55L351 55L351 109L243 109L243 164L279 164L279 218L405 218L405 273L378 273L378 327L351 327L351 382L306 382L306 436L432 436L432 491L396 491L396 545L252 545L252 600L495 600Z" fill="#8cbab8"></path><path d="M0 600L0 600L0 545L0 545L0 491L0 491L0 436L0 436L0 382L0 382L0 327L0 327L0 273L0 273L0 218L0 218L0 164L0 164L0 109L0 109L0 55L0 55L0 0L171 0L171 55L81 55L81 109L54 109L54 164L99 164L99 218L180 218L180 273L162 273L162 327L171 327L171 382L153 382L153 436L153 436L153 491L126 491L126 545L117 545L117 600L126 600Z" fill="#bceae6"></path></svg>